<?xml version="1.0" standalone="no"?>
<!DOCTYPE svg PUBLIC "-//W3C//DTD SVG 20010904//EN"
 "http://www.w3.org/TR/2001/REC-SVG-20010904/DTD/svg10.dtd">
<svg version="1.0" xmlns="http://www.w3.org/2000/svg"
 width="660.000000pt" height="385.000000pt" viewBox="0 0 660.000000 385.000000"
 preserveAspectRatio="xMidYMid meet">

<g transform="translate(0.000000,385.000000) scale(0.100000,-0.100000)"
fill="#000000" stroke="none">
<path d="M3045 3610 c-188 -22 -401 -83 -556 -160 -265 -132 -508 -358 -656
-608 -330 -560 -266 -1254 162 -1755 73 -86 72 -84 169 -452 l31 -120 45 -2
c343 -19 619 -70 779 -144 79 -36 156 -92 177 -128 l16 -27 57 56 c128 129
398 206 836 240 76 6 140 12 141 13 2 1 28 112 59 246 l57 244 65 76 c270 316
400 718 363 1120 -64 701 -605 1270 -1315 1386 -115 19 -327 26 -430 15z m31
-140 c15 0 54 -35 54 -49 0 -15 -63 -19 -78 -5 -20 21 -50 17 -63 -7 -13 -24
-6 -83 12 -105 17 -21 57 -17 69 6 12 23 70 29 70 7 0 -69 -153 -103 -195 -44
-43 61 -38 154 8 179 29 15 79 27 95 22 8 -2 20 -4 28 -4z m674 -86 c42 -17
60 -39 60 -73 0 -31 -27 -26 -60 10 -18 20 -34 30 -44 26 -26 -10 -19 -25 24
-53 44 -30 58 -63 42 -99 -14 -31 -53 -41 -104 -26 -64 20 -113 84 -79 106 15
9 59 -16 64 -36 6 -24 35 -35 50 -20 9 9 1 22 -36 55 -53 49 -56 62 -26 100
24 30 52 33 109 10z m-1125 -73 c38 -23 70 -90 61 -127 -10 -37 -60 -82 -103
-90 -98 -18 -182 105 -122 180 42 54 112 70 164 37z m1550 -183 c14 -12 25
-27 25 -33 0 -9 -16 -53 -71 -193 -8 -22 -10 -22 -35 -6 -20 14 -25 23 -20 44
4 21 -2 34 -24 55 -25 24 -33 27 -53 18 -20 -9 -28 -8 -46 10 l-21 22 102 52
c57 29 106 52 110 52 5 1 19 -9 33 -21z m-780 -20 c351 -53 679 -308 814 -633
91 -218 105 -478 39 -695 -24 -77 -133 -296 -162 -326 -12 -12 -55 -56 -96
-98 -41 -43 -105 -98 -142 -123 -38 -26 -66 -48 -65 -50 2 -1 41 8 88 21 119
35 269 64 372 72 l87 7 -6 -29 c-3 -16 -36 -168 -73 -339 l-67 -310 -110 -7
c-374 -24 -667 -107 -790 -224 l-49 -46 49 41 c97 82 257 142 481 181 128 23
292 40 376 40 53 0 59 2 64 23 3 12 35 157 71 322 60 276 75 328 89 314 2 -3
-22 -122 -54 -265 -33 -142 -67 -294 -76 -336 l-17 -78 -57 0 c-85 0 -312 -26
-435 -50 -253 -49 -418 -127 -489 -230 l-17 -24 -17 24 c-99 145 -374 235
-823 271 -80 6 -147 13 -149 15 -5 5 -171 644 -171 659 0 4 5 5 11 3 9 -3 93
-309 151 -554 l21 -92 106 -6 c227 -15 468 -56 586 -101 99 -37 102 -38 75
-21 -36 22 -170 64 -275 86 -89 18 -212 33 -389 48 l-90 7 -83 334 c-46 184
-81 336 -79 338 4 4 189 -20 275 -37 47 -9 211 -48 276 -66 11 -3 -9 13 -44
37 -65 43 -179 143 -216 189 -11 14 -31 35 -45 48 -24 23 -58 81 -106 182
-216 455 -90 964 316 1275 236 181 529 251 845 203z m-718 -33 c8 -21 -27 -47
-44 -33 -17 13 -17 35 0 41 23 10 38 7 44 -8z m-418 -81 c45 -36 81 -69 81
-74 0 -4 -9 -15 -19 -24 -19 -17 -21 -17 -54 8 l-34 26 -24 -26 -24 -26 33
-29 c33 -29 33 -31 17 -55 -19 -29 -16 -30 -118 54 -77 64 -78 65 -60 86 10
11 19 23 20 25 1 2 16 -8 33 -23 39 -32 44 -32 65 1 18 27 18 27 -15 55 -33
27 -33 28 -15 48 10 11 21 20 26 20 4 0 44 -30 88 -66z m2214 -224 c35 -28 61
-98 49 -130 -13 -34 -50 -65 -94 -79 -108 -35 -197 112 -115 190 46 43 118 52
160 19z m-2543 -309 c73 -22 96 -33 98 -47 6 -45 -10 -47 -118 -14 -57 16
-105 32 -107 34 -8 8 10 56 21 56 6 0 54 -13 106 -29z m50 -335 c0 -25 -5 -35
-20 -39 -16 -4 -20 -14 -20 -50 0 -37 4 -47 20 -52 14 -4 20 -15 20 -36 0 -16
-3 -29 -7 -29 -5 0 -56 19 -115 41 l-108 42 0 37 0 37 103 41 c56 22 108 41
115 41 7 1 12 -12 12 -33z m2590 24 c0 -5 23 -10 50 -10 l50 0 0 -64 c0 -116
-33 -157 -127 -159 -35 0 -50 5 -71 27 -24 24 -27 35 -31 111 l-3 85 51 0 c28
0 51 5 51 10 0 6 7 10 15 10 8 0 15 -4 15 -10z m-2510 -115 c0 -18 -5 -25 -20
-25 -15 0 -20 7 -20 25 0 18 5 25 20 25 15 0 20 -7 20 -25z m-30 -352 c30 -27
83 -139 74 -155 -3 -4 -23 -13 -44 -19 -23 -7 -40 -18 -40 -27 0 -10 -7 -12
-25 -8 -14 4 -41 0 -61 -9 -20 -8 -38 -15 -39 -15 -2 0 -13 28 -24 62 -35 104
-27 144 37 177 52 28 86 26 122 -6z m2497 -29 c18 -14 36 -36 39 -50 10 -39
-13 -99 -48 -129 -27 -23 -39 -26 -76 -22 -51 6 -91 32 -111 72 -12 24 -11 35
1 74 28 90 117 115 195 55z m127 -140 c9 -23 -2 -51 -22 -59 -11 -4 -24 3 -39
22 -29 35 -13 57 16 22 l20 -24 1 28 c0 30 14 36 24 11z"/>
<path d="M2516 3261 c-15 -17 -16 -22 -3 -52 8 -19 24 -43 36 -53 17 -16 25
-17 46 -8 34 16 33 60 -1 101 -30 36 -54 39 -78 12z"/>
<path d="M4097 3067 c-38 -23 -38 -23 -17 -42 11 -10 21 -16 23 -14 6 9 36 79
34 79 -1 0 -19 -10 -40 -23z"/>
<path d="M3206 2840 l-89 -70 -161 0 -161 -1 93 -41 c51 -23 91 -46 89 -52 -2
-6 -69 -63 -150 -126 -80 -63 -145 -116 -143 -118 2 -1 121 34 265 78 l261 82
192 -81 c105 -45 193 -80 194 -78 2 2 -28 54 -67 116 -39 62 -68 115 -65 118
2 3 71 26 153 53 l148 48 -188 1 -187 1 -46 70 c-25 39 -46 70 -47 70 -1 0
-42 -32 -91 -70z"/>
<path d="M3220 1032 l-105 -4 52 -18 c48 -17 55 -17 105 -3 29 8 57 19 63 24
5 6 5 8 0 7 -6 -1 -57 -4 -115 -6z"/>
<path d="M3060 436 c0 -3 9 -10 20 -16 11 -6 20 -8 20 -6 0 3 -9 10 -20 16
-11 6 -20 8 -20 6z"/>
<path d="M4369 2707 c-37 -25 -47 -50 -29 -72 31 -37 130 1 130 49 0 49 -46
60 -101 23z"/>
<path d="M1850 2053 c-44 -14 -44 -16 -10 -28 48 -19 50 -18 50 10 0 24 -9 29
-40 18z"/>
<path d="M4480 2050 c0 -28 44 -70 72 -70 38 0 68 27 68 61 0 24 -4 29 -25 29
-14 0 -25 -4 -25 -10 0 -5 -7 -10 -15 -10 -8 0 -15 5 -15 10 0 6 -13 10 -30
10 -24 0 -30 -4 -30 -20z"/>
<path d="M1940 1633 c-34 -14 -50 -61 -31 -92 11 -17 51 -5 51 16 0 11 6 14
24 9 29 -7 56 2 56 18 0 7 -9 22 -20 34 -20 21 -49 27 -80 15z"/>
<path d="M4404 1619 c-52 -19 -32 -77 32 -97 32 -9 42 -9 61 4 42 27 23 70
-42 91 -17 6 -40 7 -51 2z"/>
</g>
</svg>
